<mxfile host="drawio-plugin" modified="2024-07-06T20:22:31.060Z" agent="Mozilla/5.0 (Windows NT 10.0; Win64; x64) AppleWebKit/537.36 (KHTML, like Gecko) Chrome/122.0.0.0 Safari/537.36" etag="7xfAt_MGokUUGpbtHEjN" version="22.1.22" type="embed">
  <diagram id="23iRSUPoRavnBvh4doch" name="Page-1">
    <mxGraphModel dx="1158" dy="752" grid="1" gridSize="10" guides="1" tooltips="1" connect="1" arrows="1" fold="1" page="1" pageScale="1" pageWidth="827" pageHeight="1169" math="0" shadow="0">
      <root>
        <mxCell id="0" />
        <mxCell id="1" parent="0" />
        <mxCell id="2" value="&lt;div style=&quot;&quot;&gt;&lt;pre style=&quot;font-family: &amp;quot;JetBrains Mono&amp;quot;, monospace; font-size: 9.8pt;&quot;&gt;&lt;font style=&quot;&quot;&gt;3. Write a flowchart where we put 777 into int (x) and then put 888 into int (y) and then  -999 to (int)z.&lt;br&gt;Considered to int (result) the results calculation z+y*x. Print result.&lt;/font&gt;&lt;/pre&gt;&lt;/div&gt;" style="text;html=1;align=center;verticalAlign=middle;resizable=0;points=[];autosize=1;fillColor=#dae8fc;strokeColor=#6c8ebf;fontColor=#000033;" vertex="1" parent="1">
          <mxGeometry x="15" y="30" width="780" height="70" as="geometry" />
        </mxCell>
        <mxCell id="14" value="" style="edgeStyle=orthogonalEdgeStyle;rounded=0;orthogonalLoop=1;jettySize=auto;html=1;" edge="1" parent="1" source="3" target="4">
          <mxGeometry relative="1" as="geometry" />
        </mxCell>
        <mxCell id="3" value="Start" style="rounded=1;whiteSpace=wrap;html=1;fillColor=#dae8fc;strokeColor=#6c8ebf;fontStyle=1" vertex="1" parent="1">
          <mxGeometry x="335" y="120" width="120" height="60" as="geometry" />
        </mxCell>
        <mxCell id="15" value="" style="edgeStyle=orthogonalEdgeStyle;rounded=0;orthogonalLoop=1;jettySize=auto;html=1;" edge="1" parent="1" source="4" target="10">
          <mxGeometry relative="1" as="geometry" />
        </mxCell>
        <mxCell id="4" value="x = 777" style="shape=card;whiteSpace=wrap;html=1;fillColor=#dae8fc;strokeColor=#6c8ebf;fontStyle=1" vertex="1" parent="1">
          <mxGeometry x="310" y="220" width="170" height="50" as="geometry" />
        </mxCell>
        <mxCell id="17" value="" style="edgeStyle=orthogonalEdgeStyle;rounded=0;orthogonalLoop=1;jettySize=auto;html=1;" edge="1" parent="1" source="6" target="11">
          <mxGeometry relative="1" as="geometry" />
        </mxCell>
        <mxCell id="6" value="y = 888" style="shape=card;whiteSpace=wrap;html=1;fontStyle=1;fillColor=#dae8fc;strokeColor=#6c8ebf;" vertex="1" parent="1">
          <mxGeometry x="310" y="430" width="170" height="50" as="geometry" />
        </mxCell>
        <mxCell id="19" value="" style="edgeStyle=orthogonalEdgeStyle;rounded=0;orthogonalLoop=1;jettySize=auto;html=1;" edge="1" parent="1" source="7" target="12">
          <mxGeometry relative="1" as="geometry" />
        </mxCell>
        <mxCell id="7" value="z = -999" style="shape=card;whiteSpace=wrap;html=1;fillColor=#dae8fc;strokeColor=#6c8ebf;fontStyle=1" vertex="1" parent="1">
          <mxGeometry x="310" y="660" width="170" height="50" as="geometry" />
        </mxCell>
        <mxCell id="23" value="" style="edgeStyle=orthogonalEdgeStyle;rounded=0;orthogonalLoop=1;jettySize=auto;html=1;" edge="1" parent="1" source="8" target="13">
          <mxGeometry relative="1" as="geometry" />
        </mxCell>
        <mxCell id="8" value="Print(&quot;The result for (z+y)*x is&quot;, operation);" style="shape=document;whiteSpace=wrap;html=1;boundedLbl=1;fontStyle=1;fillColor=#dae8fc;strokeColor=#6c8ebf;" vertex="1" parent="1">
          <mxGeometry x="250" y="990" width="290" height="80" as="geometry" />
        </mxCell>
        <mxCell id="22" value="" style="edgeStyle=orthogonalEdgeStyle;rounded=0;orthogonalLoop=1;jettySize=auto;html=1;" edge="1" parent="1" source="9" target="8">
          <mxGeometry relative="1" as="geometry" />
        </mxCell>
        <mxCell id="9" value="operation = (z+y)*x" style="shape=card;whiteSpace=wrap;html=1;fillColor=#dae8fc;strokeColor=#6c8ebf;fontStyle=1" vertex="1" parent="1">
          <mxGeometry x="310" y="899" width="170" height="50" as="geometry" />
        </mxCell>
        <mxCell id="16" value="" style="edgeStyle=orthogonalEdgeStyle;rounded=0;orthogonalLoop=1;jettySize=auto;html=1;" edge="1" parent="1" source="10" target="6">
          <mxGeometry relative="1" as="geometry" />
        </mxCell>
        <mxCell id="10" value="Print (x);" style="shape=document;whiteSpace=wrap;html=1;boundedLbl=1;fontStyle=1;fillColor=#dae8fc;strokeColor=#6c8ebf;" vertex="1" parent="1">
          <mxGeometry x="335" y="310" width="120" height="80" as="geometry" />
        </mxCell>
        <mxCell id="18" value="" style="edgeStyle=orthogonalEdgeStyle;rounded=0;orthogonalLoop=1;jettySize=auto;html=1;" edge="1" parent="1" source="11" target="7">
          <mxGeometry relative="1" as="geometry" />
        </mxCell>
        <mxCell id="11" value="Print (y);" style="shape=document;whiteSpace=wrap;html=1;boundedLbl=1;fontStyle=1;fillColor=#dae8fc;strokeColor=#6c8ebf;" vertex="1" parent="1">
          <mxGeometry x="335" y="530" width="120" height="80" as="geometry" />
        </mxCell>
        <mxCell id="21" value="" style="edgeStyle=orthogonalEdgeStyle;rounded=0;orthogonalLoop=1;jettySize=auto;html=1;" edge="1" parent="1" source="12" target="9">
          <mxGeometry relative="1" as="geometry" />
        </mxCell>
        <mxCell id="12" value="Print (z);" style="shape=document;whiteSpace=wrap;html=1;boundedLbl=1;fontStyle=1;fillColor=#dae8fc;strokeColor=#6c8ebf;" vertex="1" parent="1">
          <mxGeometry x="335" y="780" width="120" height="80" as="geometry" />
        </mxCell>
        <mxCell id="13" value="Start" style="rounded=1;whiteSpace=wrap;html=1;fillColor=#dae8fc;strokeColor=#6c8ebf;fontStyle=1" vertex="1" parent="1">
          <mxGeometry x="335" y="1100" width="120" height="60" as="geometry" />
        </mxCell>
      </root>
    </mxGraphModel>
  </diagram>
</mxfile>
